<mxfile host="app.diagrams.net" modified="2023-09-05T02:01:38.085Z" agent="Mozilla/5.0 (Windows NT 10.0; Win64; x64) AppleWebKit/537.36 (KHTML, like Gecko) Chrome/116.0.0.0 Safari/537.36" etag="pxDw7R4zv97ljIU0zr95" version="21.7.2" type="device">
  <diagram name="PÃ¡gina-1" id="gyWkX2ueudWwe6J9zIHw">
    <mxGraphModel dx="1358" dy="1247" grid="1" gridSize="10" guides="1" tooltips="1" connect="1" arrows="1" fold="1" page="1" pageScale="1" pageWidth="827" pageHeight="1169" math="0" shadow="0">
      <root>
        <mxCell id="0" />
        <mxCell id="1" parent="0" />
        <mxCell id="QXGyLpKyRXpfqUU2Dj-4-1" value="Empresa" style="rounded=0;whiteSpace=wrap;html=1;" vertex="1" parent="1">
          <mxGeometry x="180" y="75" width="120" height="60" as="geometry" />
        </mxCell>
        <mxCell id="QXGyLpKyRXpfqUU2Dj-4-19" style="edgeStyle=orthogonalEdgeStyle;shape=connector;rounded=0;orthogonalLoop=1;jettySize=auto;html=1;entryX=0.5;entryY=1;entryDx=0;entryDy=0;labelBackgroundColor=default;strokeColor=default;fontFamily=Helvetica;fontSize=11;fontColor=default;endArrow=none;endFill=0;" edge="1" parent="1" source="QXGyLpKyRXpfqUU2Dj-4-2" target="QXGyLpKyRXpfqUU2Dj-4-1">
          <mxGeometry relative="1" as="geometry" />
        </mxCell>
        <mxCell id="QXGyLpKyRXpfqUU2Dj-4-2" value="possui" style="rhombus;whiteSpace=wrap;html=1;" vertex="1" parent="1">
          <mxGeometry x="200" y="195" width="80" height="50" as="geometry" />
        </mxCell>
        <mxCell id="QXGyLpKyRXpfqUU2Dj-4-16" style="edgeStyle=orthogonalEdgeStyle;shape=connector;rounded=0;orthogonalLoop=1;jettySize=auto;html=1;entryX=0;entryY=0.5;entryDx=0;entryDy=0;labelBackgroundColor=default;strokeColor=default;fontFamily=Helvetica;fontSize=11;fontColor=default;endArrow=none;endFill=0;" edge="1" parent="1" source="QXGyLpKyRXpfqUU2Dj-4-3" target="QXGyLpKyRXpfqUU2Dj-4-4">
          <mxGeometry relative="1" as="geometry" />
        </mxCell>
        <mxCell id="QXGyLpKyRXpfqUU2Dj-4-18" style="edgeStyle=orthogonalEdgeStyle;shape=connector;rounded=0;orthogonalLoop=1;jettySize=auto;html=1;entryX=0.5;entryY=1;entryDx=0;entryDy=0;labelBackgroundColor=default;strokeColor=default;fontFamily=Helvetica;fontSize=11;fontColor=default;endArrow=none;endFill=0;" edge="1" parent="1" source="QXGyLpKyRXpfqUU2Dj-4-3" target="QXGyLpKyRXpfqUU2Dj-4-2">
          <mxGeometry relative="1" as="geometry" />
        </mxCell>
        <mxCell id="QXGyLpKyRXpfqUU2Dj-4-3" value="Veiculo" style="rounded=0;whiteSpace=wrap;html=1;" vertex="1" parent="1">
          <mxGeometry x="180" y="325" width="120" height="60" as="geometry" />
        </mxCell>
        <mxCell id="QXGyLpKyRXpfqUU2Dj-4-17" style="edgeStyle=orthogonalEdgeStyle;shape=connector;rounded=0;orthogonalLoop=1;jettySize=auto;html=1;entryX=0;entryY=0.5;entryDx=0;entryDy=0;labelBackgroundColor=default;strokeColor=default;fontFamily=Helvetica;fontSize=11;fontColor=default;endArrow=none;endFill=0;" edge="1" parent="1" source="QXGyLpKyRXpfqUU2Dj-4-4" target="QXGyLpKyRXpfqUU2Dj-4-5">
          <mxGeometry relative="1" as="geometry" />
        </mxCell>
        <mxCell id="QXGyLpKyRXpfqUU2Dj-4-4" value="Aluga" style="rhombus;whiteSpace=wrap;html=1;" vertex="1" parent="1">
          <mxGeometry x="360" y="330" width="80" height="50" as="geometry" />
        </mxCell>
        <mxCell id="QXGyLpKyRXpfqUU2Dj-4-5" value="Cliente" style="rounded=0;whiteSpace=wrap;html=1;" vertex="1" parent="1">
          <mxGeometry x="500" y="325" width="120" height="60" as="geometry" />
        </mxCell>
        <mxCell id="QXGyLpKyRXpfqUU2Dj-4-11" style="edgeStyle=orthogonalEdgeStyle;rounded=0;orthogonalLoop=1;jettySize=auto;html=1;entryX=0;entryY=0.5;entryDx=0;entryDy=0;endArrow=none;endFill=0;" edge="1" parent="1" source="QXGyLpKyRXpfqUU2Dj-4-6" target="QXGyLpKyRXpfqUU2Dj-4-3">
          <mxGeometry relative="1" as="geometry" />
        </mxCell>
        <mxCell id="QXGyLpKyRXpfqUU2Dj-4-6" value="Marca" style="ellipse;whiteSpace=wrap;html=1;" vertex="1" parent="1">
          <mxGeometry x="30" y="275" width="90" height="45" as="geometry" />
        </mxCell>
        <mxCell id="QXGyLpKyRXpfqUU2Dj-4-12" style="edgeStyle=orthogonalEdgeStyle;shape=connector;rounded=0;orthogonalLoop=1;jettySize=auto;html=1;entryX=0;entryY=0.5;entryDx=0;entryDy=0;labelBackgroundColor=default;strokeColor=default;fontFamily=Helvetica;fontSize=11;fontColor=default;endArrow=none;endFill=0;" edge="1" parent="1" source="QXGyLpKyRXpfqUU2Dj-4-7" target="QXGyLpKyRXpfqUU2Dj-4-3">
          <mxGeometry relative="1" as="geometry" />
        </mxCell>
        <mxCell id="QXGyLpKyRXpfqUU2Dj-4-7" value="Modelo" style="ellipse;whiteSpace=wrap;html=1;" vertex="1" parent="1">
          <mxGeometry x="30" y="340" width="90" height="45" as="geometry" />
        </mxCell>
        <mxCell id="QXGyLpKyRXpfqUU2Dj-4-13" style="edgeStyle=orthogonalEdgeStyle;shape=connector;rounded=0;orthogonalLoop=1;jettySize=auto;html=1;entryX=0;entryY=0.5;entryDx=0;entryDy=0;labelBackgroundColor=default;strokeColor=default;fontFamily=Helvetica;fontSize=11;fontColor=default;endArrow=none;endFill=0;" edge="1" parent="1" source="QXGyLpKyRXpfqUU2Dj-4-8" target="QXGyLpKyRXpfqUU2Dj-4-3">
          <mxGeometry relative="1" as="geometry" />
        </mxCell>
        <mxCell id="QXGyLpKyRXpfqUU2Dj-4-8" value="Placa" style="ellipse;whiteSpace=wrap;html=1;" vertex="1" parent="1">
          <mxGeometry x="30" y="405" width="90" height="45" as="geometry" />
        </mxCell>
        <mxCell id="QXGyLpKyRXpfqUU2Dj-4-14" style="edgeStyle=orthogonalEdgeStyle;shape=connector;rounded=0;orthogonalLoop=1;jettySize=auto;html=1;entryX=0.5;entryY=1;entryDx=0;entryDy=0;labelBackgroundColor=default;strokeColor=default;fontFamily=Helvetica;fontSize=11;fontColor=default;endArrow=none;endFill=0;" edge="1" parent="1" source="QXGyLpKyRXpfqUU2Dj-4-9" target="QXGyLpKyRXpfqUU2Dj-4-5">
          <mxGeometry relative="1" as="geometry" />
        </mxCell>
        <mxCell id="QXGyLpKyRXpfqUU2Dj-4-9" value="Nome" style="ellipse;whiteSpace=wrap;html=1;" vertex="1" parent="1">
          <mxGeometry x="470" y="430" width="90" height="45" as="geometry" />
        </mxCell>
        <mxCell id="QXGyLpKyRXpfqUU2Dj-4-15" style="edgeStyle=orthogonalEdgeStyle;shape=connector;rounded=0;orthogonalLoop=1;jettySize=auto;html=1;labelBackgroundColor=default;strokeColor=default;fontFamily=Helvetica;fontSize=11;fontColor=default;endArrow=none;endFill=0;" edge="1" parent="1" source="QXGyLpKyRXpfqUU2Dj-4-10" target="QXGyLpKyRXpfqUU2Dj-4-5">
          <mxGeometry relative="1" as="geometry" />
        </mxCell>
        <mxCell id="QXGyLpKyRXpfqUU2Dj-4-10" value="CPF" style="ellipse;whiteSpace=wrap;html=1;" vertex="1" parent="1">
          <mxGeometry x="600" y="430" width="90" height="45" as="geometry" />
        </mxCell>
        <mxCell id="QXGyLpKyRXpfqUU2Dj-4-20" value="N" style="text;html=1;align=center;verticalAlign=middle;resizable=0;points=[];autosize=1;strokeColor=none;fillColor=none;fontSize=11;fontFamily=Helvetica;fontColor=default;" vertex="1" parent="1">
          <mxGeometry x="240" y="295" width="30" height="30" as="geometry" />
        </mxCell>
        <mxCell id="QXGyLpKyRXpfqUU2Dj-4-21" value="1" style="text;html=1;align=center;verticalAlign=middle;resizable=0;points=[];autosize=1;strokeColor=none;fillColor=none;fontSize=11;fontFamily=Helvetica;fontColor=default;" vertex="1" parent="1">
          <mxGeometry x="240" y="135" width="30" height="30" as="geometry" />
        </mxCell>
        <mxCell id="QXGyLpKyRXpfqUU2Dj-4-22" value="N" style="text;html=1;align=center;verticalAlign=middle;resizable=0;points=[];autosize=1;strokeColor=none;fillColor=none;fontSize=11;fontFamily=Helvetica;fontColor=default;" vertex="1" parent="1">
          <mxGeometry x="300" y="325" width="30" height="30" as="geometry" />
        </mxCell>
        <mxCell id="QXGyLpKyRXpfqUU2Dj-4-23" value="1" style="text;html=1;align=center;verticalAlign=middle;resizable=0;points=[];autosize=1;strokeColor=none;fillColor=none;fontSize=11;fontFamily=Helvetica;fontColor=default;" vertex="1" parent="1">
          <mxGeometry x="470" y="325" width="30" height="30" as="geometry" />
        </mxCell>
        <mxCell id="QXGyLpKyRXpfqUU2Dj-4-24" value="Empresa" style="shape=table;startSize=30;container=1;collapsible=1;childLayout=tableLayout;fixedRows=1;rowLines=0;fontStyle=1;align=center;resizeLast=1;html=1;fontFamily=Helvetica;fontSize=11;fontColor=default;" vertex="1" parent="1">
          <mxGeometry x="40" y="770" width="180" height="90" as="geometry" />
        </mxCell>
        <mxCell id="QXGyLpKyRXpfqUU2Dj-4-25" value="" style="shape=tableRow;horizontal=0;startSize=0;swimlaneHead=0;swimlaneBody=0;fillColor=none;collapsible=0;dropTarget=0;points=[[0,0.5],[1,0.5]];portConstraint=eastwest;top=0;left=0;right=0;bottom=1;fontFamily=Helvetica;fontSize=11;fontColor=default;" vertex="1" parent="QXGyLpKyRXpfqUU2Dj-4-24">
          <mxGeometry y="30" width="180" height="30" as="geometry" />
        </mxCell>
        <mxCell id="QXGyLpKyRXpfqUU2Dj-4-26" value="PK" style="shape=partialRectangle;connectable=0;fillColor=none;top=0;left=0;bottom=0;right=0;fontStyle=1;overflow=hidden;whiteSpace=wrap;html=1;fontFamily=Helvetica;fontSize=11;fontColor=default;" vertex="1" parent="QXGyLpKyRXpfqUU2Dj-4-25">
          <mxGeometry width="30" height="30" as="geometry">
            <mxRectangle width="30" height="30" as="alternateBounds" />
          </mxGeometry>
        </mxCell>
        <mxCell id="QXGyLpKyRXpfqUU2Dj-4-27" value="IdEmpresa" style="shape=partialRectangle;connectable=0;fillColor=none;top=0;left=0;bottom=0;right=0;align=left;spacingLeft=6;fontStyle=5;overflow=hidden;whiteSpace=wrap;html=1;fontFamily=Helvetica;fontSize=11;fontColor=default;" vertex="1" parent="QXGyLpKyRXpfqUU2Dj-4-25">
          <mxGeometry x="30" width="150" height="30" as="geometry">
            <mxRectangle width="150" height="30" as="alternateBounds" />
          </mxGeometry>
        </mxCell>
        <mxCell id="QXGyLpKyRXpfqUU2Dj-4-28" value="" style="shape=tableRow;horizontal=0;startSize=0;swimlaneHead=0;swimlaneBody=0;fillColor=none;collapsible=0;dropTarget=0;points=[[0,0.5],[1,0.5]];portConstraint=eastwest;top=0;left=0;right=0;bottom=0;fontFamily=Helvetica;fontSize=11;fontColor=default;" vertex="1" parent="QXGyLpKyRXpfqUU2Dj-4-24">
          <mxGeometry y="60" width="180" height="30" as="geometry" />
        </mxCell>
        <mxCell id="QXGyLpKyRXpfqUU2Dj-4-29" value="" style="shape=partialRectangle;connectable=0;fillColor=none;top=0;left=0;bottom=0;right=0;editable=1;overflow=hidden;whiteSpace=wrap;html=1;fontFamily=Helvetica;fontSize=11;fontColor=default;" vertex="1" parent="QXGyLpKyRXpfqUU2Dj-4-28">
          <mxGeometry width="30" height="30" as="geometry">
            <mxRectangle width="30" height="30" as="alternateBounds" />
          </mxGeometry>
        </mxCell>
        <mxCell id="QXGyLpKyRXpfqUU2Dj-4-30" value="Empresa" style="shape=partialRectangle;connectable=0;fillColor=none;top=0;left=0;bottom=0;right=0;align=left;spacingLeft=6;overflow=hidden;whiteSpace=wrap;html=1;fontFamily=Helvetica;fontSize=11;fontColor=default;" vertex="1" parent="QXGyLpKyRXpfqUU2Dj-4-28">
          <mxGeometry x="30" width="150" height="30" as="geometry">
            <mxRectangle width="150" height="30" as="alternateBounds" />
          </mxGeometry>
        </mxCell>
        <mxCell id="QXGyLpKyRXpfqUU2Dj-4-37" value="Veiculo" style="shape=table;startSize=30;container=1;collapsible=1;childLayout=tableLayout;fixedRows=1;rowLines=0;fontStyle=1;align=center;resizeLast=1;html=1;whiteSpace=wrap;fontFamily=Helvetica;fontSize=11;fontColor=default;" vertex="1" parent="1">
          <mxGeometry x="350" y="610" width="180" height="210" as="geometry" />
        </mxCell>
        <mxCell id="QXGyLpKyRXpfqUU2Dj-4-38" value="" style="shape=tableRow;horizontal=0;startSize=0;swimlaneHead=0;swimlaneBody=0;fillColor=none;collapsible=0;dropTarget=0;points=[[0,0.5],[1,0.5]];portConstraint=eastwest;top=0;left=0;right=0;bottom=0;html=1;fontFamily=Helvetica;fontSize=11;fontColor=default;" vertex="1" parent="QXGyLpKyRXpfqUU2Dj-4-37">
          <mxGeometry y="30" width="180" height="30" as="geometry" />
        </mxCell>
        <mxCell id="QXGyLpKyRXpfqUU2Dj-4-39" value="PK" style="shape=partialRectangle;connectable=0;fillColor=none;top=0;left=0;bottom=0;right=0;fontStyle=1;overflow=hidden;html=1;whiteSpace=wrap;fontFamily=Helvetica;fontSize=11;fontColor=default;" vertex="1" parent="QXGyLpKyRXpfqUU2Dj-4-38">
          <mxGeometry width="60" height="30" as="geometry">
            <mxRectangle width="60" height="30" as="alternateBounds" />
          </mxGeometry>
        </mxCell>
        <mxCell id="QXGyLpKyRXpfqUU2Dj-4-40" value="IdVeiculo" style="shape=partialRectangle;connectable=0;fillColor=none;top=0;left=0;bottom=0;right=0;align=left;spacingLeft=6;fontStyle=5;overflow=hidden;html=1;whiteSpace=wrap;fontFamily=Helvetica;fontSize=11;fontColor=default;" vertex="1" parent="QXGyLpKyRXpfqUU2Dj-4-38">
          <mxGeometry x="60" width="120" height="30" as="geometry">
            <mxRectangle width="120" height="30" as="alternateBounds" />
          </mxGeometry>
        </mxCell>
        <mxCell id="QXGyLpKyRXpfqUU2Dj-4-50" style="shape=tableRow;horizontal=0;startSize=0;swimlaneHead=0;swimlaneBody=0;fillColor=none;collapsible=0;dropTarget=0;points=[[0,0.5],[1,0.5]];portConstraint=eastwest;top=0;left=0;right=0;bottom=0;html=1;fontFamily=Helvetica;fontSize=11;fontColor=default;" vertex="1" parent="QXGyLpKyRXpfqUU2Dj-4-37">
          <mxGeometry y="60" width="180" height="30" as="geometry" />
        </mxCell>
        <mxCell id="QXGyLpKyRXpfqUU2Dj-4-51" value="FK" style="shape=partialRectangle;connectable=0;fillColor=none;top=0;left=0;bottom=0;right=0;fontStyle=1;overflow=hidden;html=1;whiteSpace=wrap;fontFamily=Helvetica;fontSize=11;fontColor=default;" vertex="1" parent="QXGyLpKyRXpfqUU2Dj-4-50">
          <mxGeometry width="60" height="30" as="geometry">
            <mxRectangle width="60" height="30" as="alternateBounds" />
          </mxGeometry>
        </mxCell>
        <mxCell id="QXGyLpKyRXpfqUU2Dj-4-52" value="IdCliente" style="shape=partialRectangle;connectable=0;fillColor=none;top=0;left=0;bottom=0;right=0;align=left;spacingLeft=6;fontStyle=5;overflow=hidden;html=1;whiteSpace=wrap;fontFamily=Helvetica;fontSize=11;fontColor=default;" vertex="1" parent="QXGyLpKyRXpfqUU2Dj-4-50">
          <mxGeometry x="60" width="120" height="30" as="geometry">
            <mxRectangle width="120" height="30" as="alternateBounds" />
          </mxGeometry>
        </mxCell>
        <mxCell id="QXGyLpKyRXpfqUU2Dj-4-41" value="" style="shape=tableRow;horizontal=0;startSize=0;swimlaneHead=0;swimlaneBody=0;fillColor=none;collapsible=0;dropTarget=0;points=[[0,0.5],[1,0.5]];portConstraint=eastwest;top=0;left=0;right=0;bottom=1;html=1;fontFamily=Helvetica;fontSize=11;fontColor=default;" vertex="1" parent="QXGyLpKyRXpfqUU2Dj-4-37">
          <mxGeometry y="90" width="180" height="30" as="geometry" />
        </mxCell>
        <mxCell id="QXGyLpKyRXpfqUU2Dj-4-42" value="FK" style="shape=partialRectangle;connectable=0;fillColor=none;top=0;left=0;bottom=0;right=0;fontStyle=1;overflow=hidden;html=1;whiteSpace=wrap;fontFamily=Helvetica;fontSize=11;fontColor=default;" vertex="1" parent="QXGyLpKyRXpfqUU2Dj-4-41">
          <mxGeometry width="60" height="30" as="geometry">
            <mxRectangle width="60" height="30" as="alternateBounds" />
          </mxGeometry>
        </mxCell>
        <mxCell id="QXGyLpKyRXpfqUU2Dj-4-43" value="IdEmpresa" style="shape=partialRectangle;connectable=0;fillColor=none;top=0;left=0;bottom=0;right=0;align=left;spacingLeft=6;fontStyle=5;overflow=hidden;html=1;whiteSpace=wrap;fontFamily=Helvetica;fontSize=11;fontColor=default;" vertex="1" parent="QXGyLpKyRXpfqUU2Dj-4-41">
          <mxGeometry x="60" width="120" height="30" as="geometry">
            <mxRectangle width="120" height="30" as="alternateBounds" />
          </mxGeometry>
        </mxCell>
        <mxCell id="QXGyLpKyRXpfqUU2Dj-4-44" value="" style="shape=tableRow;horizontal=0;startSize=0;swimlaneHead=0;swimlaneBody=0;fillColor=none;collapsible=0;dropTarget=0;points=[[0,0.5],[1,0.5]];portConstraint=eastwest;top=0;left=0;right=0;bottom=0;html=1;fontFamily=Helvetica;fontSize=11;fontColor=default;" vertex="1" parent="QXGyLpKyRXpfqUU2Dj-4-37">
          <mxGeometry y="120" width="180" height="30" as="geometry" />
        </mxCell>
        <mxCell id="QXGyLpKyRXpfqUU2Dj-4-45" value="" style="shape=partialRectangle;connectable=0;fillColor=none;top=0;left=0;bottom=0;right=0;editable=1;overflow=hidden;html=1;whiteSpace=wrap;fontFamily=Helvetica;fontSize=11;fontColor=default;" vertex="1" parent="QXGyLpKyRXpfqUU2Dj-4-44">
          <mxGeometry width="60" height="30" as="geometry">
            <mxRectangle width="60" height="30" as="alternateBounds" />
          </mxGeometry>
        </mxCell>
        <mxCell id="QXGyLpKyRXpfqUU2Dj-4-46" value="Marca" style="shape=partialRectangle;connectable=0;fillColor=none;top=0;left=0;bottom=0;right=0;align=left;spacingLeft=6;overflow=hidden;html=1;whiteSpace=wrap;fontFamily=Helvetica;fontSize=11;fontColor=default;" vertex="1" parent="QXGyLpKyRXpfqUU2Dj-4-44">
          <mxGeometry x="60" width="120" height="30" as="geometry">
            <mxRectangle width="120" height="30" as="alternateBounds" />
          </mxGeometry>
        </mxCell>
        <mxCell id="QXGyLpKyRXpfqUU2Dj-4-53" style="shape=tableRow;horizontal=0;startSize=0;swimlaneHead=0;swimlaneBody=0;fillColor=none;collapsible=0;dropTarget=0;points=[[0,0.5],[1,0.5]];portConstraint=eastwest;top=0;left=0;right=0;bottom=0;html=1;fontFamily=Helvetica;fontSize=11;fontColor=default;" vertex="1" parent="QXGyLpKyRXpfqUU2Dj-4-37">
          <mxGeometry y="150" width="180" height="30" as="geometry" />
        </mxCell>
        <mxCell id="QXGyLpKyRXpfqUU2Dj-4-54" style="shape=partialRectangle;connectable=0;fillColor=none;top=0;left=0;bottom=0;right=0;editable=1;overflow=hidden;html=1;whiteSpace=wrap;fontFamily=Helvetica;fontSize=11;fontColor=default;" vertex="1" parent="QXGyLpKyRXpfqUU2Dj-4-53">
          <mxGeometry width="60" height="30" as="geometry">
            <mxRectangle width="60" height="30" as="alternateBounds" />
          </mxGeometry>
        </mxCell>
        <mxCell id="QXGyLpKyRXpfqUU2Dj-4-55" value="Modelo" style="shape=partialRectangle;connectable=0;fillColor=none;top=0;left=0;bottom=0;right=0;align=left;spacingLeft=6;overflow=hidden;html=1;whiteSpace=wrap;fontFamily=Helvetica;fontSize=11;fontColor=default;" vertex="1" parent="QXGyLpKyRXpfqUU2Dj-4-53">
          <mxGeometry x="60" width="120" height="30" as="geometry">
            <mxRectangle width="120" height="30" as="alternateBounds" />
          </mxGeometry>
        </mxCell>
        <mxCell id="QXGyLpKyRXpfqUU2Dj-4-47" value="" style="shape=tableRow;horizontal=0;startSize=0;swimlaneHead=0;swimlaneBody=0;fillColor=none;collapsible=0;dropTarget=0;points=[[0,0.5],[1,0.5]];portConstraint=eastwest;top=0;left=0;right=0;bottom=0;html=1;fontFamily=Helvetica;fontSize=11;fontColor=default;" vertex="1" parent="QXGyLpKyRXpfqUU2Dj-4-37">
          <mxGeometry y="180" width="180" height="30" as="geometry" />
        </mxCell>
        <mxCell id="QXGyLpKyRXpfqUU2Dj-4-48" value="" style="shape=partialRectangle;connectable=0;fillColor=none;top=0;left=0;bottom=0;right=0;editable=1;overflow=hidden;html=1;whiteSpace=wrap;fontFamily=Helvetica;fontSize=11;fontColor=default;" vertex="1" parent="QXGyLpKyRXpfqUU2Dj-4-47">
          <mxGeometry width="60" height="30" as="geometry">
            <mxRectangle width="60" height="30" as="alternateBounds" />
          </mxGeometry>
        </mxCell>
        <mxCell id="QXGyLpKyRXpfqUU2Dj-4-49" value="Placa" style="shape=partialRectangle;connectable=0;fillColor=none;top=0;left=0;bottom=0;right=0;align=left;spacingLeft=6;overflow=hidden;html=1;whiteSpace=wrap;fontFamily=Helvetica;fontSize=11;fontColor=default;" vertex="1" parent="QXGyLpKyRXpfqUU2Dj-4-47">
          <mxGeometry x="60" width="120" height="30" as="geometry">
            <mxRectangle width="120" height="30" as="alternateBounds" />
          </mxGeometry>
        </mxCell>
        <mxCell id="QXGyLpKyRXpfqUU2Dj-4-56" value="Cliente" style="shape=table;startSize=30;container=1;collapsible=1;childLayout=tableLayout;fixedRows=1;rowLines=0;fontStyle=1;align=center;resizeLast=1;html=1;fontFamily=Helvetica;fontSize=11;fontColor=default;" vertex="1" parent="1">
          <mxGeometry x="40" y="610" width="180" height="120" as="geometry" />
        </mxCell>
        <mxCell id="QXGyLpKyRXpfqUU2Dj-4-57" value="" style="shape=tableRow;horizontal=0;startSize=0;swimlaneHead=0;swimlaneBody=0;fillColor=none;collapsible=0;dropTarget=0;points=[[0,0.5],[1,0.5]];portConstraint=eastwest;top=0;left=0;right=0;bottom=1;fontFamily=Helvetica;fontSize=11;fontColor=default;" vertex="1" parent="QXGyLpKyRXpfqUU2Dj-4-56">
          <mxGeometry y="30" width="180" height="30" as="geometry" />
        </mxCell>
        <mxCell id="QXGyLpKyRXpfqUU2Dj-4-58" value="PK" style="shape=partialRectangle;connectable=0;fillColor=none;top=0;left=0;bottom=0;right=0;fontStyle=1;overflow=hidden;whiteSpace=wrap;html=1;fontFamily=Helvetica;fontSize=11;fontColor=default;" vertex="1" parent="QXGyLpKyRXpfqUU2Dj-4-57">
          <mxGeometry width="30" height="30" as="geometry">
            <mxRectangle width="30" height="30" as="alternateBounds" />
          </mxGeometry>
        </mxCell>
        <mxCell id="QXGyLpKyRXpfqUU2Dj-4-59" value="IdCliente" style="shape=partialRectangle;connectable=0;fillColor=none;top=0;left=0;bottom=0;right=0;align=left;spacingLeft=6;fontStyle=5;overflow=hidden;whiteSpace=wrap;html=1;fontFamily=Helvetica;fontSize=11;fontColor=default;" vertex="1" parent="QXGyLpKyRXpfqUU2Dj-4-57">
          <mxGeometry x="30" width="150" height="30" as="geometry">
            <mxRectangle width="150" height="30" as="alternateBounds" />
          </mxGeometry>
        </mxCell>
        <mxCell id="QXGyLpKyRXpfqUU2Dj-4-60" value="" style="shape=tableRow;horizontal=0;startSize=0;swimlaneHead=0;swimlaneBody=0;fillColor=none;collapsible=0;dropTarget=0;points=[[0,0.5],[1,0.5]];portConstraint=eastwest;top=0;left=0;right=0;bottom=0;fontFamily=Helvetica;fontSize=11;fontColor=default;" vertex="1" parent="QXGyLpKyRXpfqUU2Dj-4-56">
          <mxGeometry y="60" width="180" height="30" as="geometry" />
        </mxCell>
        <mxCell id="QXGyLpKyRXpfqUU2Dj-4-61" value="" style="shape=partialRectangle;connectable=0;fillColor=none;top=0;left=0;bottom=0;right=0;editable=1;overflow=hidden;whiteSpace=wrap;html=1;fontFamily=Helvetica;fontSize=11;fontColor=default;" vertex="1" parent="QXGyLpKyRXpfqUU2Dj-4-60">
          <mxGeometry width="30" height="30" as="geometry">
            <mxRectangle width="30" height="30" as="alternateBounds" />
          </mxGeometry>
        </mxCell>
        <mxCell id="QXGyLpKyRXpfqUU2Dj-4-62" value="Nome" style="shape=partialRectangle;connectable=0;fillColor=none;top=0;left=0;bottom=0;right=0;align=left;spacingLeft=6;overflow=hidden;whiteSpace=wrap;html=1;fontFamily=Helvetica;fontSize=11;fontColor=default;" vertex="1" parent="QXGyLpKyRXpfqUU2Dj-4-60">
          <mxGeometry x="30" width="150" height="30" as="geometry">
            <mxRectangle width="150" height="30" as="alternateBounds" />
          </mxGeometry>
        </mxCell>
        <mxCell id="QXGyLpKyRXpfqUU2Dj-4-63" value="" style="shape=tableRow;horizontal=0;startSize=0;swimlaneHead=0;swimlaneBody=0;fillColor=none;collapsible=0;dropTarget=0;points=[[0,0.5],[1,0.5]];portConstraint=eastwest;top=0;left=0;right=0;bottom=0;fontFamily=Helvetica;fontSize=11;fontColor=default;" vertex="1" parent="QXGyLpKyRXpfqUU2Dj-4-56">
          <mxGeometry y="90" width="180" height="30" as="geometry" />
        </mxCell>
        <mxCell id="QXGyLpKyRXpfqUU2Dj-4-64" value="" style="shape=partialRectangle;connectable=0;fillColor=none;top=0;left=0;bottom=0;right=0;editable=1;overflow=hidden;whiteSpace=wrap;html=1;fontFamily=Helvetica;fontSize=11;fontColor=default;" vertex="1" parent="QXGyLpKyRXpfqUU2Dj-4-63">
          <mxGeometry width="30" height="30" as="geometry">
            <mxRectangle width="30" height="30" as="alternateBounds" />
          </mxGeometry>
        </mxCell>
        <mxCell id="QXGyLpKyRXpfqUU2Dj-4-65" value="CPF" style="shape=partialRectangle;connectable=0;fillColor=none;top=0;left=0;bottom=0;right=0;align=left;spacingLeft=6;overflow=hidden;whiteSpace=wrap;html=1;fontFamily=Helvetica;fontSize=11;fontColor=default;" vertex="1" parent="QXGyLpKyRXpfqUU2Dj-4-63">
          <mxGeometry x="30" width="150" height="30" as="geometry">
            <mxRectangle width="150" height="30" as="alternateBounds" />
          </mxGeometry>
        </mxCell>
        <mxCell id="QXGyLpKyRXpfqUU2Dj-4-69" value="" style="edgeStyle=entityRelationEdgeStyle;fontSize=12;html=1;endArrow=ERoneToMany;rounded=0;labelBackgroundColor=default;strokeColor=default;fontFamily=Helvetica;fontColor=default;shape=connector;exitX=1;exitY=0.5;exitDx=0;exitDy=0;entryX=0;entryY=0.5;entryDx=0;entryDy=0;" edge="1" parent="1" source="QXGyLpKyRXpfqUU2Dj-4-57" target="QXGyLpKyRXpfqUU2Dj-4-50">
          <mxGeometry width="100" height="100" relative="1" as="geometry">
            <mxPoint x="240" y="640" as="sourcePoint" />
            <mxPoint x="340" y="540" as="targetPoint" />
          </mxGeometry>
        </mxCell>
        <mxCell id="QXGyLpKyRXpfqUU2Dj-4-70" value="" style="edgeStyle=entityRelationEdgeStyle;fontSize=12;html=1;endArrow=ERoneToMany;rounded=0;labelBackgroundColor=default;strokeColor=default;fontFamily=Helvetica;fontColor=default;shape=connector;exitX=1;exitY=0.5;exitDx=0;exitDy=0;entryX=0;entryY=0.5;entryDx=0;entryDy=0;" edge="1" parent="1" source="QXGyLpKyRXpfqUU2Dj-4-25" target="QXGyLpKyRXpfqUU2Dj-4-41">
          <mxGeometry width="100" height="100" relative="1" as="geometry">
            <mxPoint x="240" y="640" as="sourcePoint" />
            <mxPoint x="340" y="540" as="targetPoint" />
          </mxGeometry>
        </mxCell>
        <mxCell id="QXGyLpKyRXpfqUU2Dj-4-71" value="" style="shape=image;verticalLabelPosition=bottom;labelBackgroundColor=default;verticalAlign=top;aspect=fixed;imageAspect=0;image=data:image/png,iVBORw0KGgoAAAANSUhEUgAABMYAAAC8CAIAAAAcmTUvAAAAAXNSR0IArs4c6QAAAARnQU1BAACxjwv8YQUAAAAJcEhZcwAADsMAAA7DAcdvqGQAACErSURBVHhe7d2xdqJMG8Bx+G4kKfQtcnIF5Ao0TSrbdFhqs52l3TZaxm5bqzSrVxCvwJMiWmSvxG+GGWBAUCTqgPx/5+wJTAYkDwPDw4Dr7nY7x3H+/ft3d3cnJmqK7beL7beL7beL7beL7beL7beL7beL7beL7bfL3P7/qR8AAAAAAJzK/f7+Fj/u7+/VPNBM6kCoKY5fAAAAXFl0/awffHVdPQE0UN3bP8cvAAAArsm8/uTBVwAAAABASaSUAAAAAICSSCkBAAAAACWRUgIAAAAASiKlBAAAOGTZd93+Us8AAJJIKUvbTp9c09N0q38DAAAuLOiGU3meLDuc+snkkA4bAM6KlPJH/MUu8jFo6VIAAHBhrcHId2bvZgK5/D1c+S8dPZep80aHDQBnRkp5Xtvp09N0K++BBvrLeDAzuimaqhOVi5Kn6VQVq3us0bJCfNfVKA2XNYoO350FAOBWdF6SOeXyfebEGWV2H5p4hDXde8r5RNWoi07IXjMANBYp5dmthu33FzlsuZl4s67b/hypGWf4GvVMos74YROWt6MOaTUcOsHA55voEZf99vBRD4NuJuuu6ti209eoVN9oXfZfnT/BvPzIcWb/BwDArUnmlImMMrsPTZBVnEnQGe8WTtHeU+STyTWTVQJoPFLKHxEpYyjuUfyFTAgdp/Xc8+KZ/x6d1edGTkr+Qj92Ezy3s/4K+7GwuuyzxjNv8kvPyWqr+V9dLfmcj9N5C5/hkR9pfAoAALfMzClFRhl1m4f60FCQgY50/xn3pEds/85XcV+d6sQBoJlIKX/EeJcy7F7KyMsCV8O2TlhdtztTZa3BR3BTVIhuucaP4LSHK1UEAMDt6/yaeCqnlBll79lIC7P60BTvoa2nCtt8JvvZ9gO3cgE0HillFeT1aea3/wjRWOTgQ84uHtUjs8mHe7ygCgAATSAfz5GvfOxllHl9qKlEMihSSD2liBSzRGIKADeFlNKOWfhWR/BsTrITVMJOUs9mSHdrgvyuOz0JAEADBK98zF+TnenxPlQ/NBvWWfZltyxfUtHP0W6nT5lDm8Gau+HLLrmdOAA0CSnljxjvUuZ8LVwOfzH6DB7IkQOM2e9vyCdce/P4qR39AdE3xQaLysdtO28LX2/I+GHiq6UBAGiEIKdcraLXIgM5fWhC5y34irzg1+OHP3LxuEdtf44WmT2qWHPU67rteW9T8CVMALhd7m63kz9cPYHLk18W9zn60cuXOK+6t3+OXwAAAFyTef3JKCUAAAAAoCRSSgAAAABASTz4CvDgKwAAAHAC8/rT/f7+Fj/u7+/VPNBM6kCoKY5fAAAAXFl0/cwoZSUQf7sYpcRPEH+7iL9dxN8u4m8X8beL+Ntlxp93KQEAAAAAJZFSAgAAAABKIqUEAAAAAJRESgkAAAAAKKkCKeWy7z5Nt3oGQD3ZOJDFZ7r9pZ5pJs6f1VFgX9Bi64t9h1vG6esqbjuG10spC8RxO31yTVwpXRLRRhlHD+SgYaVqyLLDR79cLU0wH+fP6ih6TWDukKyd8ZM2f/yIagbONhWjG306/jLixPwSCHhFqT0QasrJunIPvvqLXeRj0NKluAyijbNrDUa+M3s3z6DL38OV/9LRc5k6bzTBM+CIrgpxQdGe9zZ6X2x689e9qzva/M9xtqkgz/Nm40RzX77PfN/XMzg3Al5N3kR3AJvJutuMrNJSSqlvrAhP0y9dlkNUfZpuo4Rf7JVo4egOTKpOVC5KnqZTVax2Z/zB5m0DozRc1ihqyu0FKRVJoo2D4h1nHsidl+RVnujenPgaL7tVyPYUzaXbg5xPVI0aXUL2mm9Qdtgziarm0SrCEi0cBTFVJyrniC4g/kvNfbHsd2f+Is5aWoOP/RQm0eazYysL+8vUrpGF7eHKmXWjopzFm4CzTeU8jkb+av43itp2Op75Ly96TkrHXNg72+zXyVgK0vGAm7EzgxcXp7qSnPoJRepAyrjzpWQ26f3CzGqVZCWl3E5fh45O30efw5kuzrUatt9fVKrviV60/TlSM84wvvEr6owfglXK8nYU9tVw6AQ37t9EH7Pst4eP+ja+vG0QdtCvUam+dbnsvzp/gnn5kcnbP7eOaKOg3AM5eZWXuMbLbhUJskq42oVTtD2Ik25yzTfbyXH+rI6cfbH9WhtpTREHjotZV++ahb8a/hZ7RuSnMrBqSDqM+NHD6mZxtqkesU/iFGf7d54cNs47P5hnm/39wnXCAYcDntdcc7uSAgcOh8ApZI/gPbT1XCizSde85QfbuYsmLmfhh09lRZ2hIn6hh4flLwwZtRMzx9cY15BkrWggWgirBR9rLJ6UWvdliL9WT11P8GfHMiKZmLmhaO8Tf7+eqqdrbv/xhqBnwt+Z5XmtwlzAWDSU/CRjhXHddMsxKl3eFeKf+5fGf6j8hSGjdmLm+BrjGpKsZYY0rBZ8rLF4UmrdlyH+Wj11FadGzmT+JrmerNimPiAqTv0id/EruXL89xhBNf/0/LDECxiLhnJjHtdNVklUssF2/E1haBIhDoKTGaQ4kvECUnIuLR1/y6zGv0DA85prqjxR39xV0S/klF4ib502VKn9x8yIyLiFM3EMTVE8s38dSoe9Esz42xil3Hyu9FQGI1ryvnhZq8+NnkpaDdt6+Nh1u/qeTGvwEdxjEaJ7MfE4s3zA6GYRbZR36EDu/Jp4auRg+T7zes/GM39ZrSJl/3beUemNaT94ec2y5jh/VsfBfXGiAsfFIT9cvNY421RPNHa8t0uEQueHvf3CdcIhBwKe11wPnb6OHTgcAgVEQeyuJ5v9Nx/ymnSdW76NlFK0PT11OXm9RCq/D3eyfJJIWDwOg0e+kqP+l9/auiPajXTwQG4994JHNPb7t5xWYSrRN6U3RvR4JS4V64DzZ3Xk7Yvks5jFFDguDvnh4vXG2aZ6dJ6fkVEWPD+k9gvXCUfkBzyvuR7qSo4dOBwCBcTjtpnn47wmXeeWbyOlbP336ITPA4vs+0x3VGfh497yzeT0IRUIux09myHjCJPfHqcnESPaOHIgywawmr8mm8fxVqEvx8M6y75saMEnqSv0vDNGsOZu+DZHbrO8AZw/qyN3XwSXd8YbSOKX8cy+IsfFvvWXXqDc4rdERoCzTbWoIHVn/ij/9kbu+SFjv8S4TsiUG/C85pp3+ipy4HAInFXcpGve8q18PU/nLfgKiGAY93OUTLuDL7HTDvXBe/zF6FOtUiT02bdo5RNavXk8nK8/IPo6vWBR+bhY523h6w0ZP0x8tfQtItr4gUMHsupzVqtVsn/LaRUJxmpFi/gjF4/biPgg+bLBPrHmqB0F/31DdrO8AZw/qyN3X8hgRa04aJBBQ85T5LhICI4uufqg4smL3xzONtUj94k4s+x9TVWh88PefuE64ai8gOc217zTV5EDh0Pgx7KbdL1bvrsL3q0U26om6mk7fRIHxI9eHrKrVvGvfbT31bz91377647zp120f7uIv13E3y7ibxfxt8uMv5VRSgAAAADALSClBAAAAACUpMcrGTi2i/jbVff4037sIv52EX+7iL9dxN8u4m8X8bfLjL/7/f0tftzf36t5oJnUgVBTHL8AAAC4suj6WSeXZPl2EX+76h5/2o9dxN8u4m8X8beL+NtF/O0i/naZ8eddSgAAAABASaSUAAAAAICSSCkBAAAAACWRUgIAAAAASiKlxHUt++7TdKtnAAC4MPqdumMPApV3CynldvrkupxtfkKF0O0v9bwmTuJlIysXZZegAI5fi/SRH0gf/rgK2v8BqguKnK+JplasnLB6OriCLrYHkUKTtiQOvBG+4oUp513b1dU9pZRBfXVGE0/PozTP82bjRMtcvs9839czJ+q87XYfg5aeAzJx/Fq1nb7Oe5udtJl4sy7Xe1dG+z/Om6gWKr11dOGPyQ5KEu0+/oQTVk8HV9xl9iBSaNI2iFN4d62jvXgctoM+tHhhynnXZkPdU0p1FLT1HH7gcTTyV/O/UU65nY5n/suLngtkDGmIhm3cCJMV1A2TRHm83NP0S5dJxvqqckDgqjh+rWoNPsJriNZzz3PWX5W52dkMtP9yMnqioM95mk5FxxMW5vU7RxRaudHByfr9pSwImCMGmauCcNE9iBSa9KVsv9aO13tWnWjnxQ/60OKFKeddmxW8S4mIaJhxTrn9O1/5L8YtLnEqaQ8fF8Fdkd1msu4GJxTZmGfv+swil4maeWQ7fR06+nbK6HM408XiDPbq/AlK5QhJcoAUwFVtPlfO43+pYxeonOyeKLAaDp3gF2+d3H7nsIIrT5t1xw/BRy381fC3WuLAqhruonsQKTTpC2r99+isPjd6TpAzxQtTzrs2K0gpEZM5pT55LH+Lk/kvM6OUKeYiPPO0BiN9X8TIKXMySrngSI+FdN4W0ZO0nTdzhKQqRwTQQPKZBC9xwAOVsBq29aCIun7N64kC8S9y+52DCq58j7/QnVk8YHBwVY1y1T2IFJr0RcmGOevq5j1eq1cYihemnHdtNpBSwhDlh8v3WSo5lIMYpvaDzgKjZRI9QCy9YGwbPULRHubVAXBpy3576Ez+7B27gHXGm3jBxWxuT5SU3+8cUnDlRZxxVTV31T2IFJr0hYXvsAqjxzBABQvja+BwvPcna6sCUkqYOr8mnsgP9zNKefbQU4o4u3gPwUtAepkgozSflNXSC4bkZWz8CEVlbrIAzbJU7/nzxQyohfyeKCGv3zms4MqLOOOqbsxF9yBSaNJXI66bnb1r4IOFrcGHugTOePb49LVVASklEuQzqLNud7Y33Kh+ET45HzwnFyadwa/Gr9kZZfDQd/im5Hb61M14I2L5m1FK4PrkTVLySdTJgZ7IVKDfyVBw5UWccVU35qJ7ECk06StZ9rv7L48UL0w579qup+4ppfpOKvncpHpev0L/P0tNybOGk3XLozX4iB/ebs97xmWoXGa1ys4o5fj8ZuKotynan6NoQNJ4Fnz8MOE9iUbi+LVK3csxXnVq/LctXBntv4QDPZEpp985ouDKizjjqm7MRfcgUmjSlxQ/umrcmy1emHLetdng7nY7+cPVE7CC+NtV9/jTfuwi/nYRf7uIv13E3y7ibxfxt8uMPw++AgAAAABKIqUEAAAAAJRESgkAAAAAKMn9/v4WP+7v79U80EzqQKgpjl8AAABcWXT9rN+q5PVWu4i/XXWPP+3HLuJvF/G3i/jbRfztIv52EX+7zPjz4CsAAAAAoCRSSgAAAABASaSUAAAAAICSSCkBAAAAACWRUjbUsu+6/aWeAQDgqrbTJ2u90DV7wNvtbZuyB28SAcTZ1T6llKe0EEdHJnniuEJwzD3xNN3qUuAQjl/r1C7gkLWiQe2/hh2E3OSMvWL+JcKP9ltm7ywLKxii29mDN6mpzdI6FaxAHJ7ihSnnXdvV1Tyl3E5f573NTtpMvFm3KSePUyzfZ57ve7P3S8ZGNO52uCfEvujNXyvTxFFdHL+WyU7p1RlNPD2Pq2pO+7+5DsKbnGW/ZffOnbfd7mPQ0nPVQBdfB41rlvYt+911FHVnqA6L4oUp512bBTVPKVuDj7CJt557nrP+qkZYK0SeHHq/fvXyc8rkjTzRc0R3POQFp0FVMu6FhUuJxj3zF/HJJt4tmZXFB0zVmkVZalYwb7aFCyVKq3NHBj/D8WuZukho6zlcWVPaf34HIUXdjHliz+wFEp1FX/xM9g/B8kU7lKT9OrKkPVw5s64oyu9yUvutyGcZcnpnGRG99P6fY8UN78Gb1JBmWQHbr7Xz+J8+if/3GPw8oTDlvGuzIkhy5X9SqSZqbOE7jr/QMzVzufiLqAQ3rjYTL7qDJRnRkr+KAxcuYE4ZNRa+cR9M/z65AkNW5eCTjT2VmpUVo7l4JvcjzuNy8b+Oum+/ZLTI2ql5/I2js55o/3YdiX/u2Ts4wZsdQ1jLnDZaZ7KzyK6UrKM+wqwVzhT4uGA6WlMsXSWczl2PWW4S5UGVxEoEo76czF7YIGroqQvJCYT6RQ334JmJzdVTNqX/7nA6NzhmuUmUB1USKxGM+nIye2Eb7MY/iIUIxV7MixWmnHdt1yG2Q0+Jaf2jEofET9gP609cKv5GVFIBks1RtEZJ/kZPCuIXqppZHBWaogrGunLFa0vVTs4mtyX+YFl+9DPKq3v75/i1q+bxr3fwBdq/XUfin9tBJE/34cl+LxjRL1IrimeNJZJ1kp9grCp74UBcJ720JosN4bL560luU8ion1rUqJ+9aIrYCD11IblbkYxQ9BfnhiK1onjWWCJZJ/kJxqqyFw7EddJLX8bF41+I/FsNYUDyg5MMdMion1rUqJ+9qC3ir9VTlshwGCFXihemnHdtVyA2QU/tdjfyja/LfnvoTP7ET2JA2v6dr7zecxAV+STEav63+NMfcjBdPzmxfJ9FY+zxIxTymZIjTqosbT6T1doP3upzIzZm8LGZrOUDLE17gqUROH7RZLT/PathO+g4pO5MF6Z0XnwneDRPdnT+KCt8eR1KWpGPS4iv4haPw3bUKZ2wnh/1zjVQ9T14k2iWVycfB35/kSHf9OZtfX1atNB4Ilk9P/yjtVXBLaSUIrTyPVXj0X4E5MkhPpnIpO6U04N8VlsvLF+jeOvIQnnt86hvTkU3xaJ+ISWz8mGiv9BTiuhPvAf1qpfIKuWK5Jmy2Q/v3xqOXzTZ7bf/vA7ikNQQSHZ0Or8m8nWvIB95CTqotAMdSkKhj8sm/7ooySm+np/1zld223vwJjWhWVbAdjqeeZNfQdNtDf5MghS8eKG+qpXkFfYP1yZnbKt7SimTfK5Hsy1/D1eJEXGR1q2Gv/f6BTkcqbsLEc7oHpY4dccnIpVQJsjV68mgX+jGt0nEalL3TIzKB8nbYvE3lQWHjb5hFkr3MKgzjl80WUPa//EOIiHoBcZF7rqrmq+5+UiBDuXYxx39yiT5DE+Q5BTfbKFo71wRN70Hb1IjmqV98uo5ytyDfPzxv1bxQjUXOe/a7FDtJpqoGf0osSF1O6YmxIbrqfORsUlHIy5L/jaKo78Qk+EpJSqV9gq9ycQ3VpEYhjxUWZYZ25WaFYyPjU5uRlmq9lmIteqpeqrr9pu7VbnAzr0CseF6qmbSOyBxNVEfYsv1VL00qf1ndRCyLP6LRTTi9peoHpbLeKUipOoZhft1jCgb7TtZL/Pj4mJjOSFZOfFx2evJ3qZkiVlm/Dar4h7xUXrqkhJ/m/7TZFm8eWJj40hlhiLjz1H1jML9OrJEM/ZEsl525KNiY7nzE+vXUzYlI5CIYXZwsgOdLDHLjN9mVbRH/E16ygYZi1DUzIoXppx3bdchNkBP7Xau+CfmXVdPwIoKxn87fZL/DVV4+3zZd8cPN3szve7tn+PXLuJvF/G3i/jbRfztIv52EX+7zPjfyNfz4OzkW/HxULp8sRIAAAAAUnRySZZvVyXjL8cpozcgvZt+36fu7Z/j1y7ibxfxt4v420X87SL+dhF/u8z46yl2iV3E3666x5/2Yxfxt4v420X87SL+dhF/u4i/XWb83e/vb/Hj/v5ezQPNpA6EmuL4BQAAwJVF1886ufz379/d3Z0qqiO23y623y623y623y623y623y623y623y623y5z+/l6HgAAAABASaSUAAAAAICSSCkBAAAAACWRUgIAAAAASuK7dwEAAAAAJTFKCQAAAAAoiZQSAAAAAFASKSUAAAAAoCRSSgAAAABASaSUAAAAAICSSCkBAAAAACWRUgIAAAAASiKlBAAAAACUREoJAAAAAChJp5T//v1TEzXF9tvF9tvF9gMAAMAWRikBAAAAACWRUgIAAAAASiKlBAAAAACU5H5/f4sf9/f3ah4Ark+diIS7uzs1AQAAgFpwd7ud/OHqCQC4Ms4/AAAA9cWDrwAAAACAkkgpAQAAAAAlkVICAAAAAEoipQQAAAAAlERKiUOWfdftL/UMAAAAACSRUiK0nT65oafpVpfGZHqZVV6EXDepKQAAAHBzSCkREPlie97b7JRNb/66lzx23na7j0FLzwEAAAAAKSWkZb878xdxvtgafOwnj8mHYM0xzahUDUbKigE1pikL28OVM+tGRTmLAwAAAKgZUkqI/O5r7fgvHT1XxLLfHj4u9JDmZN01HoiddccPwWjnwl8Nf4tsUeSnoo7n+LK+ylQPLA4AAACgRkgp4Tibz5WeKmY7Hc+8yS+dg7YGI381/xsmhdFoZ+fFd9ZfGbniwcUBAAAA1AgpJcpZDdv6uVXX7c50YXE/XBwAAABAJZBSQo0nzt5Pe6MxeIw1dur39vxwcQAAAACVQEoJofNr4s2MNxq306dDrze2nnvebHzq+4/RQ7DlFgcAAABQPaSUkFqDj83EiR5Gbc97fw6NG8rqvXn86OrR/69SZpHBs65BxZMXBwAAAFBN7m63kz9cPQEAV8b5BwAAoL4YpQQAAAAAlERKCQAAAAAoiZQSAAAAAFCS+/39LX7c39+reQC4PnUiEu7u7tQEAAAAaoGv56kE4m8X8beL+AMAANQXD74CAAAAAEoipQQAAAAAlERKCQAAAAAoiZQSAAAAAFDSKSnlsu8+Tbd6Jpuo4vaXegYAAAAAcNMyUsqiaeF2+uSGslJNuZ5jKWgeue6mpqYybsnINTkadmS1bbVfQvH+SJazowAAANAsZR98FdfR7Xlvs1M2vfnrXvLYedvtPgYtPYcTeJ63Gv4mN7Ejv217E126may7RvIYlQtvHV0IAAAANMGxlDIernmafukyedHdnfmLOF9sDT72k0c5ehNfdZvjPlGpGn6LhnnUeJAsbA9XzqwbFeUsfrt6o4k362b/oXmRFKGKIinKo2rp8c5QA8JYRqG23RqMfGf2TgQBAADQeIdTyu30dejoEZjR53AWFn+tHf/llNGYZb89fFwE6wlGeIw0Z9YdPwSfsPDVyJy4hhd1PMeX9dXV/IHFb1R78EckleO9v1PkhMlQxJnhath+f1HFIh11258jNeMMw1G25oXxdAXbtqzmPbT1HAAAANBYB1PK7d/5yh/pIZrO28IPJhxn87nSU8Vsp+OZN/mlr9PlCM9q/jfMZqIRoc6L76y/MpKcg4vfrODvjLJBLdgji/DZymCsLA5Z+IvWc08m5Hrmv0dn9bkRU80M46mKte3l7+HK6z2Hg5cim9dDv4z9AgAAoGEOppSnpo6HGFfdbjcc7izuh4vXkkziU0lleo+0HzyVLxbUxDCeURS+7nqyMR6HNd6l5FVKAAAANMvBlFIkLHoqSY4nnvoiWfAYa2z/9bTDfrh4Tamk8vdfPbu/R0SKedLjl80M4ykOtu04dSRyAAAAQOBgSikfmgzf59tOn+Jhrc4v+bpe/Cqe+nIYPbNPPomZ8V7gEdETneUWvw1BpIfDcGwyCEX0tT3Bo6zx45dHNDmMJzixbQMAAADNdvjreTpv8ttdgof92p8j+Z05WmvwEf1G/nLe+3No2EZW783jZy4T30KaRaY/wVOGQcWTF78hLfk9PXpaEKFY+MF34Qryv7o4YbisyWE8wYltGwAAAGg0d7fbyR+unoAVxN8u4m8X8QcAAKivw6OUAAAAAADkIqUEAAAAAJRESgkAAAAAKMn9/v4WP+7v79U8AFyfOhEJd3d3agIAAAC1wNfzVALxt4v420X8AQAA6osHXwEAAAAAJZFSAgAAAABKIqUEAAAAAJRESllby77ruv2lmgp+AgAAAMB1kVLW1HY6Xk82C6fbX26/1t5DW5cDAAAAwPWQUl7bdvrkuu7TdKvns8g6hcYdO28iqWwPnd5zS5cAoWAcO2A0twoWAgAAoM5IKa9JXlC/OqOJp+d/oDX4+BiIPLLzttvtginAINpadz3ZiNax2y0eh+3wEemqFQIAAKDmSCmvSeZ/H4NTn1FV45qKcRVuFGeX8oJlg22/1o4XDl53Xnxn/bWtYiEAAADqjpSy4kSK2B4+LoKRnd1msu7qRHHZf3X+6EJvNlZPEeZVRuO0/nt0Vp8bPSfImQoWAgAAoO5IKatt+3e+8hdvHTXXGozCsZ3OW/i0a+u556mL89zKaJ7O28KfdfV49XitnrWuYCEAAABqjpSy2jafKz2ltB90+mg84doe6jr5ldFAwWu2yugxbBkVLAQAAECtkVJWm8gK9ZQissbgPwxZ9s0nXHWdvMpouOX7zPFf9Oh1qIKFAAAAqCFSyiqKhxvlU62zbvhG5HY6nkVfcBJa/g5HKQtURvMs+92ZN/mVTN8qWAgAAIB6UgNd0QQuaeGroIc8/T8qRPGPKvh6BFIylooWMEq9ycSP62dXxmEiWnrqZkRj12ZDqGBhQJToKQAAANSNK/6J6znX1ROwgvjbRfztIv4AAAD1xYOvAAAAAICSSCkBAAAAACWRUgIAAAAASnK/v7/Fj/v7ezUPANenTkTC3d2dmgAAAEAt8PU8lUD87SL+dhF/AACA+uLBVwAAAABASaSUAAAAAICSSCkBAAAAACWRUgIAAAAASiKlvC3Lvvs03eoZAAAAALgsUsqr2k6f3FB/qQtTRFZoyKsFHJHZ2CpYCAAAgFojpbyi7fR13tvspM3Em3VzL6q9iaolqq27XHujhMzGVsFCAAAA1Bwp5RW1Bh8fg5aafO55zvrr2COqrcHId2bv+tI7Z4wnLn6afuky/QjsVI14qsoMETVJZmOrYCEAAABqjpTSks3nynn8T11fH7D9WjveQ1tOLvvt4eMiGOPZydFL/c7kdvo6dPSo5uhzOJNl2mo4dIIF3joyn0wuTlbZHJmNrYKFAAAAqCOVY0QTuIrNxIufbhXM+C/8+FdiWs+klwhryXJfZ4pCvLBcNP5FqlriQ3Db7T/ddALVKuT8AwAAUF+MUlogxxudyR/9DGCG1bCtnk/trieb8FlBo1jo6uFIOdpTQLpa+8FbfW70DG5YZmOrYCEAAABqipTy2pZ9N5koZogHcBLVzGFGIfidyA31bw9KVxMppn6eFjcss7FVsBAAAAD1RUp5TfILckpeT8vvM5mN9//LydZ/j05YLlYfDl6mBYtHX7G5nY5nXu+Zi/pbltnYKlgIAACAenN3wYtMrqsncEFygCaZ8vkL+dU5yfiLWuOHzKtucUXeHkYPsHrhpXlc7C82D+NX548slx/m6NUrxsdHyyJwg+0/s7G9vFeucK/9AwAAoF5IKSuB+NtF/O0i/gAAAPXFg68AAAAAgJJIKQEAAAAAJZFSAgAAAABKcr+/v8WP+/t7NQ8A16dORMLd3Z2aAAAAQC3ob8X49+9fra/k2H672H672H4AAADYwoOvAAAAAICSSCkBAAAAACWRUgIAAAAASiKlBAAAAACU4jj/B4iUd1tVoliCAAAAAElFTkSuQmCC;" vertex="1" parent="1">
          <mxGeometry x="30" y="950" width="1222" height="188" as="geometry" />
        </mxCell>
        <mxCell id="QXGyLpKyRXpfqUU2Dj-4-72" value="Conceitual" style="text;html=1;align=center;verticalAlign=middle;resizable=0;points=[];autosize=1;strokeColor=#6c8ebf;fillColor=#dae8fc;fontSize=11;fontFamily=Helvetica;" vertex="1" parent="1">
          <mxGeometry x="35" y="30" width="80" height="30" as="geometry" />
        </mxCell>
        <mxCell id="QXGyLpKyRXpfqUU2Dj-4-73" value="Logico" style="text;html=1;align=center;verticalAlign=middle;resizable=0;points=[];autosize=1;strokeColor=#6c8ebf;fillColor=#dae8fc;fontSize=11;fontFamily=Helvetica;" vertex="1" parent="1">
          <mxGeometry x="45" y="554" width="60" height="30" as="geometry" />
        </mxCell>
        <mxCell id="QXGyLpKyRXpfqUU2Dj-4-74" value="Fisico" style="text;html=1;align=center;verticalAlign=middle;resizable=0;points=[];autosize=1;strokeColor=#6c8ebf;fillColor=#dae8fc;fontSize=11;fontFamily=Helvetica;" vertex="1" parent="1">
          <mxGeometry x="40" y="898" width="50" height="30" as="geometry" />
        </mxCell>
      </root>
    </mxGraphModel>
  </diagram>
</mxfile>
